<?xml version="1.0" standalone="no"?>
<!DOCTYPE svg PUBLIC "-//W3C//DTD SVG 20010904//EN"
 "http://www.w3.org/TR/2001/REC-SVG-20010904/DTD/svg10.dtd">
<svg version="1.0" xmlns="http://www.w3.org/2000/svg"
 width="300.000000pt" height="300.000000pt" viewBox="0 0 300.000000 300.000000"
 preserveAspectRatio="xMidYMid meet">
<metadata>
Created by potrace 1.10, written by Peter Selinger 2001-2011
</metadata>
<g transform="translate(0.000000,300.000000) scale(0.100000,-0.100000)"
fill="#000000" stroke="none">
<path d="M27 1498 l3 -1473 1475 -3 1475 -2 0 1475 0 1475 -1477 0 -1478 0 2
-1472z m2890 1426 c16 -3 22 -11 22 -27 -1 -12 0 -652 0 -1421 1 -828 -3
-1404 -8 -1409 -5 -5 -590 -9 -1426 -10 -1213 0 -1419 2 -1433 14 -16 13 -17
121 -17 1427 1 1225 3 1415 15 1422 9 5 257 10 564 10 302 0 551 2 553 4 6 5
1704 -4 1730 -10z"/>
<path d="M1348 2905 c-321 -51 -627 -275 -777 -572 -209 -415 -117 -933 223
-1250 443 -415 1127 -381 1528 75 166 189 246 392 255 650 10 259 -40 437
-178 642 -230 343 -637 519 -1051 455z m325 -20 c441 -66 782 -392 872 -834
26 -129 17 -355 -19 -476 -34 -114 -103 -255 -165 -337 -70 -92 -206 -216
-300 -272 -93 -56 -227 -109 -333 -132 -88 -19 -307 -22 -393 -5 -500 100
-855 528 -855 1031 0 441 291 842 715 985 152 51 316 65 478 40z"/>
<path d="M1006 2640 c-56 -28 -82 -56 -114 -119 -27 -56 -27 -57 -27 -271 0
-242 9 -290 68 -353 54 -58 89 -71 212 -75 120 -4 173 5 226 41 47 32 88 103
96 165 5 48 4 52 -16 52 -17 0 -21 -6 -21 -30 0 -68 -54 -149 -119 -176 -45
-19 -239 -19 -284 0 -47 19 -94 78 -112 141 -13 44 -16 94 -13 253 3 184 5
200 26 241 53 98 120 127 276 119 96 -5 135 -19 173 -60 27 -29 53 -89 53
-123 0 -18 5 -25 20 -25 23 0 26 24 10 79 -16 58 -59 109 -113 136 -47 23 -62
25 -176 25 -105 -1 -133 -4 -165 -20z"/>
<path d="M1877 2309 c-10 -11 -16 -24 -13 -27 6 -6 35 27 36 41 0 11 -4 9 -23
-14z"/>
<path d="M1794 2203 c-16 -21 -32 -39 -36 -41 -5 -2 -8 -11 -8 -20 0 -9 14 4
32 29 18 24 37 47 42 51 6 4 8 10 4 13 -3 4 -19 -11 -34 -32z"/>
<path d="M1625 1992 c-11 -18 -23 -32 -27 -32 -4 0 -8 -7 -8 -16 0 -12 7 -8
22 12 12 16 26 32 31 35 5 4 7 13 5 20 -3 8 -12 1 -23 -19z"/>
<path d="M1742 1867 c-55 -17 -118 -81 -141 -143 -19 -49 -21 -77 -21 -254 0
-177 2 -205 21 -254 24 -65 87 -126 147 -144 58 -18 229 -15 285 4 59 20 121
82 141 141 24 71 23 439 -1 507 -23 62 -80 120 -140 140 -54 18 -238 20 -291
3z m291 -41 c41 -17 91 -73 108 -123 10 -27 14 -95 14 -238 0 -193 -1 -202
-25 -249 -14 -28 -42 -64 -63 -80 -38 -30 -41 -31 -167 -34 -113 -3 -132 -1
-168 17 -47 24 -75 57 -97 115 -13 35 -16 77 -13 252 l3 211 30 49 c49 78 86
94 228 94 77 0 129 -5 150 -14z"/>
<path d="M1460 1783 c-14 -20 -31 -43 -39 -50 -7 -8 -11 -16 -8 -19 3 -3 18
12 33 33 16 21 33 41 38 44 4 4 7 12 5 18 -2 6 -15 -6 -29 -26z"/>
<path d="M1352 1650 c-18 -30 -14 -36 8 -12 21 22 25 32 12 32 -4 0 -13 -9
-20 -20z"/>
<path d="M1293 1573 c-15 -21 -31 -39 -35 -41 -5 -2 -8 -8 -8 -14 0 -6 -8 -17
-17 -24 -10 -8 -13 -14 -6 -14 7 0 25 17 40 38 15 20 31 39 36 40 4 2 7 8 7
14 0 6 8 17 18 24 9 8 12 14 5 14 -7 0 -25 -17 -40 -37z"/>
<path d="M1180 1432 c0 -5 -9 -18 -21 -30 -11 -13 -19 -28 -17 -34 3 -7 13 2
23 20 11 18 23 32 27 32 4 0 8 5 8 10 0 6 -4 10 -10 10 -5 0 -10 -4 -10 -8z"/>
<path d="M343 558 c2 -7 16 -12 31 -10 l26 3 0 -81 c0 -66 3 -80 16 -80 13 0
15 12 12 78 l-3 77 28 -2 c18 -1 27 3 27 13 0 11 -16 14 -71 14 -52 0 -70 -3
-66 -12z"/>
<path d="M510 496 c0 -41 -3 -81 -6 -90 -4 -10 -1 -16 9 -16 12 0 17 12 19 46
3 50 22 72 52 61 12 -5 16 -19 16 -57 0 -27 5 -50 10 -50 6 0 10 24 10 54 0
63 -15 81 -60 72 -28 -5 -30 -3 -30 24 0 17 -4 30 -10 30 -6 0 -10 -31 -10
-74z"/>
<path d="M886 557 c-27 -20 -34 -108 -12 -142 29 -45 136 -29 136 21 0 20 -13
17 -28 -6 -14 -22 -61 -27 -80 -8 -7 7 -12 33 -12 58 0 25 5 51 12 58 19 19
66 15 78 -8 12 -23 30 -27 30 -6 0 41 -84 63 -124 33z"/>
<path d="M1134 559 c-3 -6 -2 -15 2 -19 12 -12 38 5 30 19 -9 14 -23 14 -32 0z"/>
<path d="M1304 559 c-3 -6 -2 -15 2 -19 12 -12 38 5 30 19 -9 14 -23 14 -32 0z"/>
<path d="M1650 492 c0 -81 9 -102 42 -102 22 0 24 16 3 24 -11 4 -15 23 -15
81 0 60 -3 75 -15 75 -12 0 -15 -15 -15 -78z"/>
<path d="M1807 552 c-24 -27 -23 -123 1 -145 26 -23 94 -22 115 1 24 27 23
123 -1 145 -26 23 -94 22 -115 -1z m94 -12 c15 -8 19 -21 19 -58 0 -27 -5 -53
-12 -60 -13 -13 -57 -16 -75 -4 -18 12 -20 112 -2 123 19 12 46 11 70 -1z"/>
<path d="M2222 489 c2 -64 7 -84 20 -93 9 -5 21 -6 25 -2 4 5 2 11 -4 13 -9 3
-13 30 -13 84 0 64 -3 79 -15 79 -13 0 -15 -14 -13 -81z"/>
<path d="M2590 481 c0 -54 4 -91 10 -91 6 0 10 11 10 25 0 15 6 25 14 25 7 0
21 -11 30 -25 9 -14 23 -25 31 -25 22 0 19 10 -12 42 l-27 28 29 30 c40 41 10
39 -33 -2 l-34 -33 3 54 c2 36 -1 56 -9 59 -9 3 -12 -21 -12 -87z"/>
<path d="M1210 541 c0 -11 -6 -22 -12 -25 -10 -5 -10 -7 0 -12 7 -3 12 -24 12
-48 0 -45 13 -66 42 -66 22 0 24 16 3 24 -10 3 -15 19 -15 46 0 29 4 40 15 40
8 0 15 5 15 10 0 6 -7 10 -15 10 -8 0 -15 9 -15 20 0 11 -7 20 -15 20 -8 0
-15 -9 -15 -19z"/>
<path d="M2130 541 c0 -11 -6 -22 -12 -24 -10 -4 -9 -8 2 -16 9 -6 13 -23 11
-46 -3 -40 12 -65 40 -65 23 0 25 16 4 24 -10 3 -15 19 -15 46 0 29 4 40 15
40 8 0 15 5 15 10 0 6 -7 10 -15 10 -8 0 -15 9 -15 20 0 11 -7 20 -15 20 -8 0
-15 -9 -15 -19z"/>
<path d="M660 501 c-14 -27 -13 -84 2 -99 16 -16 80 -16 96 0 16 16 15 28 -3
28 -8 0 -15 -4 -15 -10 0 -15 -57 -12 -63 4 -8 21 2 26 50 26 38 0 43 3 43 23
0 33 -18 47 -62 47 -27 0 -40 -5 -48 -19z m83 -15 c4 -10 -4 -15 -29 -18 -39
-5 -45 -2 -37 18 7 18 59 18 66 0z"/>
<path d="M1040 453 c0 -46 4 -63 14 -63 9 0 12 8 8 25 -7 37 5 72 28 78 33 9
23 25 -15 24 l-35 -1 0 -63z"/>
<path d="M1140 471 c0 -27 -3 -56 -6 -65 -4 -11 -1 -16 10 -16 13 0 16 12 16
65 0 37 -4 65 -10 65 -5 0 -10 -22 -10 -49z"/>
<path d="M1310 518 c-1 -2 -2 -31 -3 -66 -1 -44 2 -62 11 -62 8 0 12 20 12 65
0 37 -4 65 -10 65 -5 0 -10 -1 -10 -2z"/>
<path d="M1376 498 c-19 -27 -21 -68 -3 -92 17 -23 85 -19 101 6 14 24 -3 37
-19 15 -8 -11 -23 -17 -37 -15 -20 3 -23 9 -23 43 0 34 3 40 23 43 14 2 29 -4
37 -15 16 -22 33 -9 19 15 -6 10 -27 18 -47 20 -27 2 -39 -2 -51 -20z"/>
<path d="M1523 513 c-14 -5 -18 -33 -5 -33 4 0 13 5 19 11 16 16 57 7 61 -13
3 -14 -3 -16 -30 -12 -44 8 -76 -23 -58 -55 9 -18 19 -21 60 -20 l50 2 0 52
c0 28 -5 56 -12 63 -12 12 -62 15 -85 5z m61 -69 c13 -5 14 -9 5 -20 -15 -18
-59 -18 -59 -1 0 26 21 34 54 21z"/>
<path d="M1970 466 c0 -65 11 -76 73 -74 l47 1 0 63 c0 49 -3 64 -14 64 -11 0
-16 -15 -18 -52 -3 -49 -5 -53 -30 -56 -28 -3 -28 -2 -28 52 0 43 -3 56 -15
56 -11 0 -15 -13 -15 -54z"/>
<path d="M2302 508 c-7 -7 -12 -30 -12 -53 0 -23 5 -46 12 -53 16 -16 80 -16
96 0 15 15 16 72 2 99 -12 22 -78 27 -98 7z m81 -29 c5 -9 7 -28 3 -43 -6 -24
-11 -27 -39 -24 -27 2 -33 8 -35 31 -2 16 2 35 9 43 15 18 48 15 62 -7z"/>
<path d="M2452 508 c-7 -7 -12 -30 -12 -53 0 -51 13 -65 62 -65 27 0 40 5 48
19 15 29 12 77 -6 95 -18 19 -75 21 -92 4z m77 -26 c20 -38 -1 -76 -40 -70
-18 2 -25 10 -27 31 -2 16 -1 35 2 43 8 20 53 17 65 -4z"/>
</g>
</svg>
